# xmcd CD database file
#
# Track frame offsets:
#	150
#	13065
#	23725
#	36213
#	44991
#	57202
#	66827
#	78854
#	91242
#	102505
#	115405
#	126324
#	136652
#	151977
#	162594
#	173123
#	186687
#	198182
#	214039
#	228292
#	239161
#	248073
#	258652
#
# Disc length: 3618 seconds
#
# Revision: 0
# Processed by: cddbd v1.5.2PL0 Copyright (c) Steve Scherf et al.
# Submitted via: jetAudio 7
#
DISCID=4d0e2017
DTITLE=Jerry Reed - Nashville Underground and Better Things In Life
DYEAR=1900
DGENRE=Country
TTITLE0=Remembering
TTITLE1=A Thing Called Love
TTITLE2=You Wouldn't Know A Good Thing
TTITLE3=Save Your Dreams
TTITLE4=Almost Crazy
TTITLE5=You've Been Cryin' Again
TTITLE6=Fine On My Mind
TTITLE7=Tupelo Mississippi Flash
TTITLE8=Wabash Cannonball
TTITLE9=Hallelujah I Love Her So
TTITLE10=John Henry
TTITLE11=Roving Gambler
TTITLE12=Pride Today
TTITLE13=The Likes Of Me
TTITLE14=Blues Land
TTITLE15=Coming Up Roses
TTITLE16=Johnny Wants To Be A Star
TTITLE17=There's Better Things In Life
TTITLE18=Oh What a Woman
TTITLE19=Patches Of Blue
TTITLE20=Swinging '69
TTITLE21=Someday You'll Call My Name
TTITLE22=I'm A Happy Man
EXTD=©2016 BGO Records BGOCD1267 Disc 2
EXTT0=
EXTT1=
EXTT2=
EXTT3=
EXTT4=
EXTT5=
EXTT6=
EXTT7=
EXTT8=
EXTT9=
EXTT10=
EXTT11=
EXTT12=
EXTT13=
EXTT14=
EXTT15=
EXTT16=
EXTT17=
EXTT18=
EXTT19=
EXTT20=
EXTT21=
EXTT22=
PLAYORDER=
